<svg width="40" height="40" viewBox="0 0 40 40" fill="none" xmlns="http://www.w3.org/2000/svg">
  <mask id="mask0_11769_31908" style="mask-type:alpha" maskUnits="userSpaceOnUse" x="0" y="0" width="40" height="40">
  <rect width="40" height="40" fill="#D9D9D9"/>
  </mask>
  <g mask="url(#mask0_11769_31908)">
  <path d="M27.1667 32.8307C26.8611 32.8307 26.5903 32.7127 26.3542 32.4766C26.1181 32.2405 26 31.9696 26 31.6641V19.7057C26 19.4002 26.1181 19.1293 26.3542 18.8932C26.5903 18.6571 26.8611 18.5391 27.1667 18.5391H33.3333C33.6389 18.5391 33.9097 18.6571 34.1458 18.8932C34.3819 19.1293 34.5 19.4002 34.5 19.7057V31.6641C34.5 31.9696 34.3819 32.2405 34.1458 32.4766C33.9097 32.7127 33.6389 32.8307 33.3333 32.8307H27.1667ZM27.1667 30.2474H33.3333V21.1224H27.1667V30.2474ZM13.6667 32.8307V31.9141H17.875V26.1641H7.75C7.14583 26.1641 6.61979 25.9401 6.17188 25.4922C5.72396 25.0443 5.5 24.5182 5.5 23.9141V9.41406C5.5 8.8099 5.72396 8.28385 6.17188 7.83594C6.61979 7.38802 7.14583 7.16406 7.75 7.16406H28.9167C29.5278 7.16406 30.0556 7.38802 30.5 7.83594C30.9444 8.28385 31.1667 8.8099 31.1667 9.41406V15.4557H30.25V9.41406C30.25 9.02517 30.125 8.70573 29.875 8.45573C29.625 8.20573 29.3056 8.08073 28.9167 8.08073H7.75C7.36111 8.08073 7.04167 8.20573 6.79167 8.45573C6.54167 8.70573 6.41667 9.02517 6.41667 9.41406V23.9141C6.41667 24.303 6.54167 24.6224 6.79167 24.8724C7.04167 25.1224 7.36111 25.2474 7.75 25.2474H22.9167V26.1641H18.7917V31.9141H23V32.8307H13.6667ZM15.5 21.4557L18.3333 19.1224L21.1667 21.4557L20.125 17.8307L23 15.4557H19.445L18.3333 12.1641L17.2217 15.4557H13.6667L16.5417 17.8307L15.5 21.4557Z" fill="#1C1B1F"/>
  </g>
  </svg>
  