<svg width="40" height="40" viewBox="0 0 40 40" fill="none" xmlns="http://www.w3.org/2000/svg">
  <mask id="mask0_11769_32017" style="mask-type:alpha" maskUnits="userSpaceOnUse" x="0" y="0" width="40" height="40">
  <rect width="40" height="40" fill="#D9D9D9"/>
  </mask>
  <g mask="url(#mask0_11769_32017)">
  <path d="M9.63757 19.6389L5.33203 15.3333L9.63757 11.0695L13.8737 15.3333L9.63757 19.6389ZM16.8598 34.5V26.9333C15.2302 26.7926 13.6075 26.618 11.9917 26.4097C10.376 26.2014 8.76723 25.912 7.16536 25.5417L7.38757 24.5417C9.47613 25.0231 11.5632 25.375 13.6488 25.5972C15.7344 25.8194 17.8508 25.9305 19.9981 25.9305C22.1454 25.9305 24.2634 25.8194 26.3519 25.5972C28.4405 25.375 30.5357 25.0231 32.6376 24.5417L32.832 25.5417C31.2302 25.912 29.6214 26.2014 28.0058 26.4097C26.3901 26.618 24.7674 26.7917 23.1376 26.9305V34.5H16.8598ZM9.63757 18.2361L12.4987 15.3333L9.63757 12.4722L6.70703 15.3333L9.63757 18.2361ZM19.9938 12.3333C19.0434 12.3333 18.2371 12.0007 17.5751 11.3354C16.913 10.6701 16.582 9.8622 16.582 8.91175C16.582 7.96133 16.9147 7.1551 17.58 6.49304C18.2453 5.83101 19.0532 5.5 20.0036 5.5C20.954 5.5 21.7603 5.83265 22.4223 6.49796C23.0844 7.16326 23.4154 7.97114 23.4154 8.92158C23.4154 9.872 23.0827 10.6782 22.4174 11.3403C21.7521 12.0023 20.9442 12.3333 19.9938 12.3333ZM20.0009 22.7639C19.2661 22.7639 18.6469 22.5084 18.1432 21.9975C17.6394 21.4866 17.3876 20.8724 17.3876 20.155C17.3876 19.4202 17.6387 18.8009 18.1409 18.2972C18.6432 17.7935 19.2617 17.5417 19.9965 17.5417C20.7313 17.5417 21.3505 17.7928 21.8542 18.295C22.358 18.7972 22.6098 19.4111 22.6098 20.1367C22.6098 20.8622 22.3587 21.4815 21.8564 21.9945C21.3542 22.5074 20.7357 22.7639 20.0009 22.7639ZM19.9938 11.3333C20.673 11.3333 21.2464 11.1012 21.714 10.6368C22.1816 10.1725 22.4154 9.60071 22.4154 8.92154C22.4154 8.24238 22.1832 7.66899 21.7189 7.20138C21.2545 6.73379 20.6827 6.5 20.0036 6.5C19.3244 6.5 18.751 6.73217 18.2834 7.1965C17.8158 7.66086 17.582 8.23263 17.582 8.91179C17.582 9.59096 17.8142 10.1643 18.2785 10.632C18.7429 11.0995 19.3147 11.3333 19.9938 11.3333ZM28.4292 19.5833L26.4848 16.1667L28.4385 12.75H32.2209L34.1654 16.1667L32.2117 19.5833H28.4292ZM28.9755 18.5833H31.6792L33.0265 16.1667L31.6746 13.75H28.9709L27.6237 16.1667L28.9755 18.5833Z" fill="#1C1B1F"/>
  </g>
  </svg>
  