<svg width="32" height="32" viewBox="0 0 32 32" fill="none" xmlns="http://www.w3.org/2000/svg">
  <mask id="mask0_11769_32014" style="mask-type:alpha" maskUnits="userSpaceOnUse" x="0" y="0" width="32" height="32">
  <rect width="32" height="32" fill="#D9D9D9"/>
  </mask>
  <g mask="url(#mask0_11769_32014)">
  <path d="M3.15557 22.8873L2.5 22.3873L8.0111 13.554L12.0016 18.2207L17.2778 9.70954L19.7444 13.4429C19.6111 13.4873 19.4796 13.5262 19.35 13.5595C19.2204 13.5929 19.0926 13.6244 18.9667 13.654L17.3111 11.1984L12.1876 19.5651L8.14443 14.8651L3.15557 22.8873ZM28.8556 29.4318L24.1111 24.7318C23.7185 25.0355 23.3 25.2651 22.8556 25.4207C22.4111 25.5762 21.9445 25.654 21.4556 25.654C20.2877 25.654 19.2957 25.2457 18.4796 24.4292C17.6636 23.6126 17.2556 22.62 17.2556 21.4514C17.2556 20.2827 17.6638 19.291 18.4804 18.4762C19.297 17.6614 20.2895 17.254 21.4582 17.254C22.6268 17.254 23.6185 17.662 24.4333 18.4781C25.2482 19.2941 25.6556 20.2861 25.6556 21.454C25.6556 21.9651 25.5722 22.4484 25.4056 22.904C25.2389 23.3596 24.9926 23.7795 24.6667 24.164L29.4333 28.854L28.8556 29.4318ZM21.4524 24.854C22.4027 24.854 23.2074 24.5254 23.8667 23.8682C24.5259 23.2111 24.8556 22.4074 24.8556 21.4571C24.8556 20.5069 24.527 19.7021 23.8698 19.0429C23.2126 18.3836 22.4089 18.054 21.4587 18.054C20.5085 18.054 19.7037 18.3826 19.0444 19.0397C18.3852 19.6969 18.0556 20.5006 18.0556 21.4509C18.0556 22.4011 18.3841 23.2058 19.0413 23.8651C19.6985 24.5244 20.5022 24.854 21.4524 24.854ZM23.6667 13.5429C23.5259 13.4984 23.3907 13.4669 23.2611 13.4484C23.1315 13.4299 23.0037 13.4096 22.8778 13.3873L28.8444 3.89844L29.5 4.39844L23.6667 13.5429Z" fill="#1C1B1F"/>
  </g>
  </svg>
  