<svg width="40" height="40" viewBox="0 0 40 40" fill="none" xmlns="http://www.w3.org/2000/svg">
  <mask id="mask0_11769_32020" style="mask-type:alpha" maskUnits="userSpaceOnUse" x="0" y="0" width="40" height="40">
  <rect width="40" height="40" fill="#D9D9D9"/>
  </mask>
  <g mask="url(#mask0_11769_32020)">
  <path d="M32.5278 33.168L22 22.6402C21.174 23.3823 20.2148 23.9475 19.1225 24.3357C18.0301 24.7239 16.9522 24.918 15.8889 24.918C13.3441 24.918 11.1847 24.0337 9.41083 22.2652C7.63694 20.4967 6.75 18.3393 6.75 15.793C6.75 13.2467 7.63426 11.0893 9.40279 9.32076C11.1713 7.55223 13.3312 6.66797 15.8826 6.66797C18.4154 6.66797 20.5728 7.55223 22.3548 9.32076C24.1368 11.0893 25.0278 13.2433 25.0278 15.7829C25.0278 16.9192 24.8195 18.0337 24.4028 19.1263C23.9861 20.2189 23.4259 21.1494 22.7222 21.918L33.25 32.418L32.5278 33.168ZM15.8889 23.918C18.1728 23.918 20.1003 23.1379 21.6713 21.5777C23.2423 20.0175 24.0278 18.0893 24.0278 15.793C24.0278 13.4967 23.2423 11.5684 21.6713 10.0083C20.1003 8.44807 18.1728 7.66797 15.8889 7.66797C13.6018 7.66797 11.6736 8.44807 10.1042 10.0083C8.53472 11.5684 7.75 13.4967 7.75 15.793C7.75 18.0893 8.53472 20.0175 10.1042 21.5777C11.6736 23.1379 13.6018 23.918 15.8889 23.918ZM13.8611 18.8624L14.6111 16.4458L12.5 14.7513H15.0496L15.8889 12.2791L16.6945 14.7513H19.2778L17.1667 16.4327L17.8889 18.8624L15.8889 17.3346L13.8611 18.8624Z" fill="#1C1B1F"/>
  </g>
  </svg>
  